<svg xmlns="http://www.w3.org/2000/svg" width="230" height="136" fill="none" viewBox="0 0 230 136">
  <path fill="#fff" d="M136.151 67.32c-.827 0-1.467-.227-1.92-.68-.427-.48-.64-1.133-.64-1.96v-21.6h-7.8c-.693 0-1.24-.187-1.64-.56-.373-.4-.56-.933-.56-1.6 0-.693.187-1.213.56-1.56.4-.373.947-.56 1.64-.56h20.72c.693 0 1.227.187 1.6.56.4.347.6.867.6 1.56 0 .667-.2 1.2-.6 1.6-.373.373-.907.56-1.6.56h-7.8v21.6c0 .827-.213 1.48-.64 1.96-.427.453-1.067.68-1.92.68Zm18.319.08c-1.414 0-2.68-.267-3.8-.8-1.094-.56-1.96-1.307-2.6-2.24-.614-.933-.92-1.987-.92-3.16 0-1.44.373-2.573 1.12-3.4.746-.853 1.96-1.467 3.64-1.84 1.68-.373 3.933-.56 6.76-.56h2v2.88h-1.96c-1.654 0-2.974.08-3.96.24-.987.16-1.694.44-2.12.84-.4.373-.6.907-.6 1.6 0 .88.306 1.6.92 2.16.613.56 1.466.84 2.56.84.88 0 1.653-.2 2.32-.6a4.62 4.62 0 0 0 1.64-1.72c.4-.72.6-1.547.6-2.48v-4.6c0-1.333-.294-2.293-.88-2.88-.587-.587-1.574-.88-2.96-.88-.774 0-1.614.093-2.52.28-.88.187-1.814.507-2.8.96-.507.24-.96.307-1.36.2a1.527 1.527 0 0 1-.88-.64 2.093 2.093 0 0 1-.32-1.12c0-.4.106-.787.32-1.16.213-.4.573-.693 1.08-.88 1.226-.507 2.4-.867 3.52-1.08 1.146-.213 2.186-.32 3.12-.32 1.92 0 3.493.293 4.72.88 1.253.587 2.186 1.48 2.8 2.68.613 1.173.92 2.693.92 4.56v9.6c0 .827-.2 1.467-.6 1.92-.4.427-.974.64-1.72.64-.747 0-1.334-.213-1.76-.64-.4-.453-.6-1.093-.6-1.92v-1.92h.32c-.187.933-.56 1.747-1.12 2.44a5.432 5.432 0 0 1-2.04 1.56c-.827.373-1.774.56-2.84.56Zm22.595 0c-1.147 0-2.36-.12-3.64-.36-1.28-.24-2.427-.653-3.44-1.24-.427-.267-.734-.573-.92-.92a2.276 2.276 0 0 1-.2-1.08c.053-.373.186-.693.4-.96.24-.267.533-.44.88-.52.373-.08.773-.013 1.2.2 1.066.507 2.066.867 3 1.08.933.187 1.853.28 2.76.28 1.28 0 2.226-.213 2.84-.64.64-.453.96-1.04.96-1.76 0-.613-.214-1.08-.64-1.4-.4-.347-1.014-.6-1.84-.76l-4-.76c-1.654-.32-2.92-.92-3.8-1.8-.854-.907-1.28-2.067-1.28-3.48 0-1.28.346-2.387 1.04-3.32.72-.933 1.706-1.653 2.96-2.16 1.253-.507 2.693-.76 4.32-.76 1.173 0 2.266.133 3.28.4 1.04.24 2.04.627 3 1.16.4.213.666.493.8.84.16.347.2.707.12 1.08a2.33 2.33 0 0 1-.48.96c-.24.267-.547.44-.92.52-.347.053-.747-.027-1.2-.24a10.776 10.776 0 0 0-2.4-.92 8.9 8.9 0 0 0-2.16-.28c-1.307 0-2.28.227-2.92.68-.614.453-.92 1.053-.92 1.8 0 .56.186 1.027.56 1.4.373.373.946.627 1.72.76l4 .76c1.733.32 3.04.907 3.92 1.76.906.853 1.36 2 1.36 3.44 0 1.947-.76 3.48-2.28 4.6-1.52 1.093-3.547 1.64-6.08 1.64Zm14.851-.08c-.8 0-1.413-.213-1.84-.64-.427-.453-.64-1.093-.64-1.92V41c0-.827.213-1.453.64-1.88.427-.427 1.04-.64 1.84-.64s1.413.213 1.84.64c.453.427.68 1.053.68 1.88v14.76h.08l6.6-6.96c.533-.533 1-.947 1.4-1.24.4-.293.947-.44 1.64-.44s1.213.187 1.56.56c.373.347.56.773.56 1.28s-.24 1.013-.72 1.52l-6.96 7.36v-2.08l7.64 8.24c.48.507.693 1.027.64 1.56-.027.507-.24.933-.64 1.28-.4.32-.907.48-1.52.48-.747 0-1.347-.147-1.8-.44-.427-.293-.907-.733-1.44-1.32l-6.96-7.28h-.08v6.48c0 1.707-.84 2.56-2.52 2.56Zm-119.795 55c-.747 0-1.32-.213-1.72-.64-.4-.427-.6-1.013-.6-1.76V95.88c0-.773.213-1.36.64-1.76.426-.427 1.013-.64 1.76-.64.666 0 1.186.133 1.56.4.4.24.76.667 1.08 1.28l9.88 18.28h-1.28l9.88-18.28c.32-.613.666-1.04 1.04-1.28.373-.267.893-.4 1.56-.4.746 0 1.32.213 1.72.64.4.4.6.987.6 1.76v24.04c0 .747-.2 1.333-.6 1.76-.374.427-.947.64-1.72.64-.747 0-1.32-.213-1.72-.64-.4-.427-.6-1.013-.6-1.76V101.4h.88l-8.4 15.32c-.267.453-.547.787-.84 1-.294.213-.694.32-1.2.32-.507 0-.92-.107-1.24-.32-.32-.24-.6-.573-.84-1l-8.48-15.36h.96v18.56c0 .747-.2 1.333-.6 1.76-.374.427-.947.64-1.72.64Zm38.286.08c-1.413 0-2.68-.267-3.8-.8-1.093-.56-1.96-1.307-2.6-2.24-.613-.933-.92-1.987-.92-3.16 0-1.44.374-2.573 1.12-3.4.747-.853 1.96-1.467 3.64-1.84 1.68-.373 3.934-.56 6.76-.56h2v2.88h-1.96c-1.653 0-2.973.08-3.96.24-.986.16-1.693.44-2.12.84-.4.373-.6.907-.6 1.6 0 .88.307 1.6.92 2.16.614.56 1.467.84 2.56.84.88 0 1.654-.2 2.32-.6.694-.427 1.24-1 1.64-1.72.4-.72.6-1.547.6-2.48v-4.6c0-1.333-.293-2.293-.88-2.88-.586-.587-1.573-.88-2.96-.88-.773 0-1.613.093-2.52.28-.88.187-1.813.507-2.8.96-.506.24-.96.307-1.36.2a1.535 1.535 0 0 1-.88-.64 2.103 2.103 0 0 1-.32-1.12c0-.4.107-.787.32-1.16.214-.4.574-.693 1.08-.88 1.227-.507 2.4-.867 3.52-1.08 1.147-.213 2.187-.32 3.12-.32 1.92 0 3.494.293 4.72.88 1.254.587 2.187 1.48 2.8 2.68.614 1.173.92 2.693.92 4.56v9.6c0 .827-.2 1.467-.6 1.92-.4.427-.973.64-1.72.64-.746 0-1.333-.213-1.76-.64-.4-.453-.6-1.093-.6-1.92v-1.92h.32c-.186.933-.56 1.747-1.12 2.44a5.41 5.41 0 0 1-2.04 1.56c-.826.373-1.773.56-2.84.56Zm17.915-.08c-.8 0-1.413-.213-1.84-.64-.426-.453-.64-1.093-.64-1.92v-15.12c0-.827.214-1.453.64-1.88.427-.427 1.027-.64 1.8-.64.774 0 1.374.213 1.8.64.427.427.64 1.053.64 1.88v2.72l-.44-1c.587-1.413 1.494-2.48 2.72-3.2 1.254-.747 2.667-1.12 4.24-1.12 1.574 0 2.867.293 3.88.88 1.014.587 1.774 1.48 2.28 2.68.507 1.173.76 2.667.76 4.48v9.68c0 .827-.213 1.467-.64 1.92-.426.427-1.04.64-1.84.64s-1.426-.213-1.88-.64c-.426-.453-.64-1.093-.64-1.92v-9.44c0-1.52-.293-2.627-.88-3.32-.56-.693-1.44-1.04-2.64-1.04-1.466 0-2.64.467-3.52 1.4-.853.907-1.28 2.12-1.28 3.64v8.76c0 1.707-.84 2.56-2.52 2.56Zm27.359.08c-1.414 0-2.68-.267-3.8-.8-1.094-.56-1.96-1.307-2.6-2.24-.614-.933-.92-1.987-.92-3.16 0-1.44.373-2.573 1.12-3.4.746-.853 1.96-1.467 3.64-1.84 1.68-.373 3.933-.56 6.76-.56h2v2.88h-1.96c-1.654 0-2.974.08-3.96.24-.987.16-1.694.44-2.12.84-.4.373-.6.907-.6 1.6 0 .88.306 1.6.92 2.16.613.56 1.466.84 2.56.84.88 0 1.653-.2 2.32-.6.693-.427 1.24-1 1.64-1.72.4-.72.6-1.547.6-2.48v-4.6c0-1.333-.294-2.293-.88-2.88-.587-.587-1.574-.88-2.96-.88-.774 0-1.614.093-2.52.28-.88.187-1.814.507-2.8.96-.507.24-.96.307-1.36.2a1.528 1.528 0 0 1-.88-.64 2.094 2.094 0 0 1-.32-1.12c0-.4.106-.787.32-1.16.213-.4.573-.693 1.08-.88 1.226-.507 2.4-.867 3.52-1.08 1.146-.213 2.186-.32 3.12-.32 1.92 0 3.493.293 4.72.88 1.253.587 2.186 1.48 2.8 2.68.613 1.173.92 2.693.92 4.56v9.6c0 .827-.2 1.467-.6 1.92-.4.427-.974.64-1.72.64-.747 0-1.334-.213-1.76-.64-.4-.453-.6-1.093-.6-1.92v-1.92h.32c-.187.933-.56 1.747-1.12 2.44a5.426 5.426 0 0 1-2.04 1.56c-.827.373-1.774.56-2.84.56Zm24.555 7.2c-1.44 0-2.84-.133-4.2-.4-1.334-.267-2.547-.68-3.64-1.24-.507-.267-.854-.587-1.04-.96a2.16 2.16 0 0 1-.16-1.16c.08-.373.24-.707.48-1 .266-.293.586-.493.96-.6.373-.107.76-.053 1.16.16 1.173.587 2.28.96 3.32 1.12 1.066.187 1.973.28 2.72.28 1.786 0 3.12-.44 4-1.32.906-.853 1.36-2.133 1.36-3.84v-3.6h.36c-.4 1.36-1.24 2.453-2.52 3.28-1.254.8-2.68 1.2-4.28 1.2-1.76 0-3.294-.4-4.6-1.2-1.307-.827-2.32-1.973-3.04-3.44-.72-1.467-1.08-3.173-1.08-5.12 0-1.467.2-2.787.6-3.96.426-1.2 1.013-2.227 1.76-3.08a7.789 7.789 0 0 1 2.76-1.96c1.093-.48 2.293-.72 3.6-.72 1.653 0 3.093.413 4.32 1.24 1.253.8 2.066 1.867 2.44 3.2l-.4 1v-2.84c0-.827.213-1.453.64-1.88.453-.427 1.066-.64 1.84-.64.8 0 1.413.213 1.84.64.426.427.64 1.053.64 1.88v15.4c0 3.173-.84 5.56-2.52 7.16-1.68 1.6-4.12 2.4-7.32 2.4Zm-.12-11.88c1.04 0 1.933-.24 2.68-.72.746-.48 1.32-1.16 1.72-2.04.426-.907.64-1.973.64-3.2 0-1.84-.454-3.28-1.36-4.32-.907-1.067-2.134-1.6-3.68-1.6-1.04 0-1.934.24-2.68.72-.747.48-1.334 1.16-1.76 2.04-.4.88-.6 1.933-.6 3.16 0 1.84.453 3.293 1.36 4.36.906 1.067 2.133 1.6 3.68 1.6Zm24.78 4.68c-2.213 0-4.12-.413-5.72-1.24-1.6-.827-2.84-2-3.72-3.52-.853-1.52-1.28-3.32-1.28-5.4 0-2.027.414-3.8 1.24-5.32.854-1.52 2.014-2.707 3.48-3.56 1.494-.88 3.187-1.32 5.08-1.32 1.387 0 2.627.227 3.72.68a7.639 7.639 0 0 1 2.84 1.96c.8.853 1.4 1.893 1.8 3.12.427 1.2.64 2.56.64 4.08 0 .48-.173.853-.52 1.12-.32.24-.786.36-1.4.36h-12.84v-2.88h11.24l-.64.6c0-1.227-.186-2.253-.56-3.08-.346-.827-.866-1.453-1.56-1.88-.666-.453-1.506-.68-2.52-.68-1.12 0-2.08.267-2.88.8-.773.507-1.373 1.24-1.8 2.2-.4.933-.6 2.053-.6 3.36v.28c0 2.187.507 3.827 1.52 4.92 1.04 1.067 2.56 1.6 4.56 1.6.694 0 1.467-.08 2.32-.24a8.943 8.943 0 0 0 2.48-.92c.56-.32 1.054-.453 1.48-.4.427.027.76.173 1 .44.267.267.427.6.48 1 .054.373-.026.76-.24 1.16-.186.4-.52.747-1 1.04-.933.587-2.013 1.027-3.24 1.32-1.2.267-2.32.4-3.36.4Zm14.6-.08c-.827 0-1.467-.213-1.92-.64-.427-.453-.64-1.093-.64-1.92v-15.12c0-.827.213-1.453.64-1.88.427-.427 1.027-.64 1.8-.64.773 0 1.373.213 1.8.64.427.427.64 1.053.64 1.88v2.52h-.4c.373-1.6 1.107-2.813 2.2-3.64 1.093-.827 2.547-1.32 4.36-1.48.56-.053 1 .093 1.32.44.347.32.547.827.6 1.52.053.667-.107 1.213-.48 1.64-.347.4-.88.64-1.6.72l-.88.08c-1.627.16-2.853.667-3.68 1.52-.827.827-1.24 2-1.24 3.52v8.28c0 .827-.213 1.467-.64 1.92-.427.427-1.053.64-1.88.64Z"/>
  <path fill="#fff" fill-rule="evenodd" d="M8.105 2.235C.4 6.17 0 9.125 0 62.222c0 54.768.324 56.774 9.75 60.301 3.293 1.232 11.014 1.749 20.019 1.338 22.815-1.039 21.294 3.377 21.294-61.801 0-65.662 1.699-61.026-22.609-61.683C17.514.082 11.19.66 8.104 2.235Zm58.528-.114c-6.827 3.917-7.513 7.966-7.086 41.856.38 30.164.53 31.575 3.766 35.242 2.872 3.253 5.244 3.907 15.997 4.414 19.216.906 25.363-.587 28.814-7.007 2.536-4.714 2.872-8.589 2.876-33.196.007-32.201-1.106-37.724-8.287-41.128-6.281-2.975-30.993-3.1-36.08-.181Zm-23.678 9.593c1.85 3.322 1.849 97.372-.002 100.692-1.1 1.975-4.733 2.517-16.874 2.517-8.509 0-16.026-.628-16.706-1.396-1.465-1.658-2.56-86.109-1.247-96.254 1.098-8.498 1.734-8.768 19.68-8.377 10.396.226 14.09.915 15.149 2.818Zm58.679-1.12c1.609 1.828 1.607 60.83-.001 62.654-.68.769-8.197 1.398-16.706 1.398-12.141 0-15.773-.542-16.875-2.517-1.638-2.939-1.924-57.014-.316-59.744.598-1.015 2.087-2.313 3.308-2.882 3.201-1.495 29.129-.568 30.59 1.091Z" clip-rule="evenodd"/>
</svg>
